<svg width="361" height="146" viewBox="0 0 361 146" fill="none" xmlns="http://www.w3.org/2000/svg">
<g opacity="0.3" clip-path="url(#clip0_288_454)">
<path d="M31.5482 116.062H27.7275V145.488H46.649V143.185H31.5482V116.062Z" fill="white"/>
<path d="M53.3442 145.488H72.2657V143.185H57.1649V135.18H70.1189V133.279H57.1649V118.401H72.2657V116.062H53.3442V145.488Z" fill="white"/>
<path d="M95.4085 141.321H95.2266L81.7996 116.062H78.9614V145.488H80.8172V121.508H80.9627L93.9167 146H94.6444L107.889 121.654H108.035V145.488H111.856V116.062H108.981L95.4085 141.321Z" fill="white"/>
<path d="M122.299 145.488H141.22V143.185H126.12V136.167H139.11V134.229H126.12V118.401H141.22V116.062H122.299V145.488Z" fill="white"/>
<path d="M171.53 138.579H171.349L148.133 115.55H147.915V145.488H149.844V123.007H150.026L173.241 146H173.459V116.062H171.53V138.579Z" fill="white"/>
<path d="M179.717 118.401H190.925V145.488H194.745V118.401H205.953V116.062H179.717V118.401Z" fill="white"/>
<path d="M248.636 128.929H231.097V116.062H227.312V145.488H231.097V130.866H248.636V145.488H252.456V116.062H248.636V128.929Z" fill="white"/>
<path d="M288.08 120.814C286.733 119.278 285.059 118.036 282.985 117.049C280.948 116.062 278.51 115.55 275.708 115.55C272.942 115.55 270.577 116.025 268.612 117.012C266.647 117.999 265.01 119.242 263.7 120.741C262.426 122.239 261.48 123.884 260.862 125.675C260.28 127.467 259.952 129.148 259.952 130.757C259.952 132.328 260.243 134.01 260.862 135.765C261.48 137.556 262.39 139.201 263.7 140.7C264.974 142.198 266.611 143.478 268.612 144.465C270.577 145.452 272.979 145.963 275.708 145.963C277.564 145.963 279.274 145.744 280.802 145.269C282.33 144.794 283.677 144.172 284.914 143.405C286.115 142.637 287.17 141.723 288.08 140.7C288.953 139.676 289.717 138.616 290.263 137.446C290.845 136.313 291.282 135.18 291.573 134.01C291.864 132.877 292.01 131.78 292.01 130.72C292.01 129.148 291.682 127.467 291.063 125.712C290.408 123.994 289.426 122.349 288.08 120.814ZM286.952 136.203C286.297 137.848 285.423 139.237 284.332 140.444C283.24 141.613 281.967 142.527 280.475 143.185C279.019 143.843 277.455 144.172 275.817 144.172C274.143 144.172 272.579 143.843 271.159 143.185C269.74 142.527 268.503 141.613 267.448 140.444C266.393 139.274 265.592 137.848 264.974 136.203C264.391 134.558 264.064 132.767 264.064 130.793C264.064 128.819 264.355 127.028 264.974 125.383C265.592 123.738 266.393 122.349 267.448 121.179C268.503 120.009 269.74 119.096 271.159 118.438C272.579 117.78 274.143 117.451 275.817 117.451C277.455 117.451 279.019 117.78 280.475 118.438C281.93 119.096 283.24 120.009 284.332 121.179C285.423 122.349 286.297 123.775 286.952 125.383C287.607 127.028 287.898 128.819 287.898 130.793C287.898 132.767 287.57 134.558 286.952 136.203Z" fill="white"/>
<path d="M315.99 141.321H315.808L302.381 116.062H299.542V145.488H301.362V121.508H301.544L314.461 146H315.225L328.434 121.654H328.616V145.488H332.437V116.062H329.526L315.99 141.321Z" fill="white"/>
<path d="M0 145.489H21.032V143.186H3.82068V140.444C4.87592 137.922 7.38665 136.167 10.2613 136.167H19.5401V134.266H10.2613C7.71414 134.266 5.45812 135.363 3.82068 137.081V133.133V127.577V118.402H21.0683V116.099H0V145.489Z" fill="white"/>
<path d="M343.752 127.577V118.402H361V116.099H339.932V145.525H361V143.222H343.752V140.481C344.808 137.958 347.318 136.204 350.193 136.204H359.472V134.303H350.193C347.646 134.303 345.39 135.4 343.752 137.118V133.17V127.577Z" fill="white"/>
<path d="M216.978 0V4.82524V20.8363C216.978 31.6199 208.209 40.3931 197.475 40.3931H187.395H172.076H161.997C154.028 40.3931 146.933 44.2679 142.493 50.2629V3.83826H161.706H182.738H183.175V0H182.738H161.706H129.139V85.3921H142.493V80.969V63.7516C142.566 53.0045 151.263 44.2679 161.997 44.2679H172.076H187.395H197.475C205.444 44.2679 212.539 40.3565 216.978 34.3981V50.5919H216.942V55.3075H216.978V81.8097H176.297V85.3555V85.6114H230.296V0H216.978Z" fill="white"/>
</g>
<defs>
<clipPath id="clip0_288_454">
<rect width="361" height="146" fill="white"/>
</clipPath>
</defs>
</svg>
