<svg width="143" height="58" viewBox="0 0 143 58" fill="none" xmlns="http://www.w3.org/2000/svg">
<g clip-path="url(#clip0_321_212)">
<path d="M12.4969 46.1064H10.9834V57.7965H18.4786V56.8816H12.4969V46.1064Z" fill="white"/>
<path d="M21.1309 57.7965H28.6261V56.8816H22.6443V53.7013H27.7757V52.9462H22.6443V47.0358H28.6261V46.1064H21.1309V57.7965Z" fill="white"/>
<path d="M37.7934 56.141H37.7213L32.4026 46.1064H31.2783V57.7965H32.0134V48.2702H32.0711L37.2024 57.9998H37.4907L42.7373 48.3283H42.795V57.7965H44.3085V46.1064H43.1698L37.7934 56.141Z" fill="white"/>
<path d="M48.4453 57.7965H55.9405V56.8816H49.9588V54.0934H55.1045V53.3238H49.9588V47.0358H55.9405V46.1064H48.4453V57.7965Z" fill="white"/>
<path d="M67.9474 55.052H67.8753L58.6793 45.9033H58.5928V57.7967H59.3567V48.8658H59.4288L68.6248 58H68.7113V46.1066H67.9474V55.052Z" fill="white"/>
<path d="M71.1895 47.0358H75.6289V57.7965H77.1424V47.0358H81.5819V46.1064H71.1895V47.0358Z" fill="white"/>
<path d="M98.49 51.2181H91.5425V46.1064H90.0435V57.7965H91.5425V51.9878H98.49V57.7965H100.003V46.1064H98.49V51.2181Z" fill="white"/>
<path d="M114.115 47.9945C113.581 47.3845 112.918 46.8908 112.097 46.4987C111.289 46.1066 110.324 45.9033 109.214 45.9033C108.118 45.9033 107.182 46.0921 106.403 46.4842C105.625 46.8763 104.976 47.37 104.457 47.9654C103.953 48.5608 103.578 49.2143 103.333 49.9259C103.102 50.6374 102.973 51.3054 102.973 51.9444C102.973 52.5688 103.088 53.2368 103.333 53.9339C103.578 54.6454 103.938 55.2989 104.457 55.8943C104.962 56.4897 105.61 56.998 106.403 57.39C107.182 57.7821 108.133 57.9854 109.214 57.9854C109.949 57.9854 110.626 57.8983 111.232 57.7095C111.837 57.5207 112.371 57.2739 112.861 56.9689C113.336 56.664 113.754 56.3009 114.115 55.8943C114.461 55.4877 114.763 55.0666 114.979 54.6019C115.21 54.1517 115.383 53.7015 115.498 53.2368C115.614 52.7866 115.671 52.351 115.671 51.9299C115.671 51.3054 115.542 50.6374 115.297 49.9404C115.037 49.2579 114.648 48.6044 114.115 47.9945ZM113.668 54.1081C113.408 54.7616 113.062 55.3134 112.63 55.7927C112.198 56.2573 111.693 56.6204 111.102 56.8818C110.526 57.1432 109.906 57.2739 109.257 57.2739C108.594 57.2739 107.974 57.1432 107.412 56.8818C106.85 56.6204 106.36 56.2573 105.942 55.7927C105.524 55.328 105.207 54.7616 104.962 54.1081C104.731 53.4546 104.601 52.7431 104.601 51.9589C104.601 51.1747 104.717 50.4632 104.962 49.8097C105.207 49.1562 105.524 48.6044 105.942 48.1397C106.36 47.675 106.85 47.3119 107.412 47.0505C107.974 46.7892 108.594 46.6585 109.257 46.6585C109.906 46.6585 110.526 46.7892 111.102 47.0505C111.679 47.3119 112.198 47.675 112.63 48.1397C113.062 48.6044 113.408 49.1707 113.668 49.8097C113.927 50.4632 114.043 51.1747 114.043 51.9589C114.043 52.7431 113.913 53.4546 113.668 54.1081Z" fill="white"/>
<path d="M125.17 56.141H125.098L119.78 46.1064H118.655V57.7965H119.376V48.2702H119.448L124.565 57.9998H124.868L130.1 48.3283H130.172V57.7965H131.685V46.1064H130.532L125.17 56.141Z" fill="white"/>
<path d="M0 57.7966H8.33122V56.8817H1.51346V55.7926C1.93146 54.7906 2.92602 54.0936 4.06471 54.0936H7.74025V53.3384H4.06471C3.05574 53.3384 2.16208 53.7741 1.51346 54.4566V52.8882V50.6809V47.036H8.34563V46.1211H0V57.7966Z" fill="white"/>
<path d="M136.168 50.6809V47.036H143V46.1211H134.654V57.8111H143V56.8963H136.168V55.8071C136.586 54.8051 137.58 54.1081 138.719 54.1081H142.395V53.3529H138.719C137.71 53.3529 136.816 53.7886 136.168 54.4711V52.9028V50.6809Z" fill="white"/>
<path d="M85.9504 0V1.91688V8.27742C85.9504 12.5613 82.4766 16.0466 78.2245 16.0466H74.2319H68.1636H64.171C61.0144 16.0466 58.2037 17.5859 56.4452 19.9675V1.52479H64.0557H72.3869H72.5599V0H72.3869H64.0557H51.1553V33.9229H56.4452V32.1657V25.326C56.474 21.0566 59.9189 17.5859 64.171 17.5859H68.1636H74.2319H78.2245C81.3812 17.5859 84.1919 16.032 85.9504 13.665V20.0981H85.9359V21.9715H85.9504V32.4998H69.8356V33.9084V34.01H91.2258V0H85.9504Z" fill="white"/>
</g>
<defs>
<clipPath id="clip0_321_212">
<rect width="143" height="58" fill="white"/>
</clipPath>
</defs>
</svg>
