<svg width="191" height="32" viewBox="0 0 191 32" fill="none" xmlns="http://www.w3.org/2000/svg">
<g clip-path="url(#clip0_260_175)">
<path d="M66.9713 10.4072H65.5332V21.4017H72.655V20.5412H66.9713V10.4072Z" fill="white"/>
<path d="M75.1758 21.4017H82.2975V20.5412H76.6138V17.5639H81.4895V16.84H76.6138V11.2677H82.2975V10.4072H75.1758V21.4017Z" fill="white"/>
<path d="M91.0078 19.8584H90.9394L85.8856 10.4072H84.8174V21.4017H85.5022V12.4422H85.5706L90.4463 21.5929H90.7202L95.7054 12.4969H95.7602V21.4017H97.1983V10.4072H96.1163L91.0078 19.8584Z" fill="white"/>
<path d="M101.143 21.4017H108.264V20.5412H102.567V17.919H107.456V17.1951H102.567V11.2677H108.264V10.4072H101.143V21.4017Z" fill="white"/>
<path d="M119.659 18.8202H119.604L110.853 10.2158H110.784V21.4015H111.51V13.002H111.565L120.316 21.5927H120.385V10.407H119.659V18.8202Z" fill="white"/>
<path d="M122.754 11.2677H126.973V21.4017H128.411V11.2677H132.629V10.4072H122.754V11.2677Z" fill="white"/>
<path d="M148.708 15.2147H142.107V10.4072H140.668V21.4017H142.107V15.9386H148.708V21.4017H150.132V10.4072H148.708V15.2147Z" fill="white"/>
<path d="M163.54 12.1825C163.033 11.6226 162.403 11.1445 161.622 10.7758C160.856 10.407 159.938 10.2158 158.883 10.2158C157.842 10.2158 156.952 10.3934 156.213 10.7621C155.459 11.1309 154.857 11.5952 154.364 12.1552C153.884 12.7152 153.528 13.3298 153.296 13.999C153.076 14.6682 152.953 15.3101 152.953 15.8974C152.953 16.4847 153.063 17.113 153.296 17.7685C153.528 18.4378 153.871 19.0524 154.364 19.6123C154.857 20.1723 155.459 20.6503 156.213 21.0191C156.952 21.3878 157.856 21.579 158.883 21.579C159.582 21.579 160.226 21.4971 160.801 21.3195C161.376 21.142 161.883 20.9098 162.348 20.623C162.8 20.3362 163.197 19.9947 163.54 19.6123C163.882 19.2299 164.156 18.8202 164.362 18.3968C164.581 17.9734 164.731 17.55 164.841 17.113C164.951 16.6759 165.005 16.2798 165.005 15.8838C165.005 15.2965 164.882 14.6682 164.649 13.999C164.416 13.3707 164.047 12.7562 163.54 12.1825ZM163.115 17.9324C162.869 18.547 162.54 19.066 162.129 19.5167C161.718 19.9538 161.239 20.2952 160.677 20.541C160.13 20.7869 159.541 20.9098 158.924 20.9098C158.294 20.9098 157.706 20.7869 157.171 20.541C156.637 20.2952 156.172 19.9538 155.774 19.5167C155.377 19.0797 155.076 18.547 154.843 17.9324C154.61 17.3178 154.501 16.6486 154.501 15.9111C154.501 15.1736 154.61 14.5043 154.843 13.8897C155.062 13.2751 155.377 12.7562 155.774 12.3054C156.172 11.8684 156.637 11.527 157.171 11.2811C157.706 11.0353 158.294 10.9124 158.924 10.9124C159.541 10.9124 160.13 11.0353 160.677 11.2811C161.225 11.527 161.718 11.8684 162.129 12.3054C162.54 12.7425 162.869 13.2751 163.115 13.8897C163.362 14.5043 163.471 15.1736 163.471 15.9111C163.485 16.6486 163.362 17.3178 163.115 17.9324Z" fill="white"/>
<path d="M174.059 19.8584H173.99L168.936 10.4072H167.868V21.4017H168.553V12.4422H168.621L173.483 21.5929H173.771L178.743 12.4969H178.811V21.4017H180.249V10.4072H179.153L174.059 19.8584Z" fill="white"/>
<path d="M55.084 21.4017H63.0138V20.5412H56.522V19.5169C56.9192 18.5745 57.8642 17.919 58.9462 17.919H62.4386V17.2088H58.9462C57.9875 17.2088 57.1383 17.6185 56.522 18.2604V16.7854V14.7231V11.2677H63.0138V10.4072H55.084V21.4017Z" fill="white"/>
<path d="M184.508 14.6957V11.2677H191V10.4072H183.07V21.4017H191V20.5412H184.508V19.5169C184.906 18.5745 185.851 17.919 186.933 17.919H190.425V17.2088H186.933C185.974 17.2088 185.111 17.6185 184.508 18.2604V16.7854V14.6957Z" fill="white"/>
<path d="M33.0614 0V1.80282V7.79855C33.0614 11.8276 29.7607 15.1191 25.7205 15.1191H21.9268H16.1472H12.3535C9.35415 15.1191 6.68349 16.5668 5.01262 18.8067V1.43406H12.2576H20.1737H20.3381V0H20.1737H12.2576H0V31.9044H5.02632V30.2518V23.819C5.05371 19.8037 8.32697 16.5395 12.3672 16.5395H16.1609H21.9405H25.7342C28.7335 16.5395 31.4042 15.0781 33.0751 12.8519V18.9159H33.0614V20.6641H33.0751V30.5796H17.7496V31.9044V32H38.0877V0H33.0614Z" fill="white"/>
</g>
<defs>
<clipPath id="clip0_260_175">
<rect width="191" height="32" fill="white"/>
</clipPath>
</defs>
</svg>
